<svg xmlns="http://www.w3.org/2000/svg" width="260" height="260" viewBox="0 0 260 260">
  <g fill="#c1440e">
    <g transform="translate(40,50) rotate(-15)">
      <ellipse cx="0" cy="0" rx="13" ry="17"/>
      <ellipse cx="-20" cy="-16" rx="6" ry="9"/>
      <ellipse cx="-6" cy="-24" rx="6" ry="9"/>
      <ellipse cx="10" cy="-23" rx="6" ry="9"/>
      <ellipse cx="23" cy="-13" rx="6" ry="9"/>
    </g>
    <g transform="translate(170,150) rotate(20)">
      <ellipse cx="0" cy="0" rx="13" ry="17"/>
      <ellipse cx="-20" cy="-16" rx="6" ry="9"/>
      <ellipse cx="-6" cy="-24" rx="6" ry="9"/>
      <ellipse cx="10" cy="-23" rx="6" ry="9"/>
      <ellipse cx="23" cy="-13" rx="6" ry="9"/>
    </g>
    <g transform="translate(75,205) rotate(-8)">
      <ellipse cx="0" cy="0" rx="10" ry="13"/>
      <ellipse cx="-15" cy="-12" rx="4.5" ry="7"/>
      <ellipse cx="-4" cy="-18" rx="4.5" ry="7"/>
      <ellipse cx="8" cy="-17" rx="4.5" ry="7"/>
      <ellipse cx="18" cy="-10" rx="4.5" ry="7"/>
    </g>
  </g>
</svg>
